<?xml version="1.0" standalone="no"?>
<!DOCTYPE svg PUBLIC "-//W3C//DTD SVG 20010904//EN"
 "http://www.w3.org/TR/2001/REC-SVG-20010904/DTD/svg10.dtd">
<svg version="1.0" xmlns="http://www.w3.org/2000/svg"
 width="512.000000pt" height="512.000000pt" viewBox="0 0 512.000000 512.000000"
 preserveAspectRatio="xMidYMid meet">

<g transform="translate(0.000000,512.000000) scale(0.100000,-0.100000)"
fill="#000000" stroke="none">
<path d="M2880 5109 c-58 -11 -136 -65 -183 -127 -48 -63 -102 -180 -128 -279
-17 -65 -26 -82 -49 -95 -35 -20 -59 -56 -71 -105 -11 -48 -1 -133 16 -133 9
0 10 11 4 46 -17 89 26 172 97 190 32 8 38 1 25 -24 -25 -46 -4 -98 36 -90 29
5 39 50 19 88 -15 31 -15 35 1 53 10 10 31 26 47 34 25 13 33 13 72 -2 24 -9
46 -21 49 -26 3 -5 -4 -22 -16 -38 -18 -25 -20 -33 -9 -46 7 -8 19 -15 26 -15
20 0 47 46 40 68 -5 16 1 23 35 36 50 20 97 9 128 -30 19 -24 19 -25 -2 -62
-23 -42 -18 -72 11 -72 28 0 46 27 47 68 0 47 19 51 55 12 38 -40 41 -103 9
-144 -29 -37 -13 -48 17 -13 19 23 24 39 24 85 0 44 10 83 46 174 l47 116 81
6 c45 3 111 7 149 9 l67 3 0 -28 c0 -65 55 -138 105 -138 12 0 49 -18 81 -40
78 -53 126 -55 180 -7 21 17 46 52 57 76 11 24 32 55 48 68 102 87 -18 275
-148 230 -31 -10 -43 -10 -63 0 -33 17 -102 16 -144 -1 -18 -7 -46 -28 -63
-46 l-30 -32 -94 52 c-182 100 -343 160 -483 179 -42 6 -80 11 -84 10 -4 -1
-27 -5 -52 -10z m946 -174 c10 -8 15 -15 9 -15 -5 0 -21 -16 -34 -35 -19 -29
-21 -38 -11 -50 31 -37 85 2 83 60 -1 29 3 35 28 44 57 20 128 -21 149 -86 13
-37 6 -86 -14 -103 -11 -8 -15 -4 -21 17 -10 42 -34 63 -72 63 -26 0 -36 -6
-45 -25 -10 -21 -8 -30 8 -52 11 -15 33 -31 50 -36 39 -13 38 -11 19 -51 -25
-53 -79 -96 -119 -96 -27 0 -85 28 -115 56 -2 2 3 12 12 22 49 54 -30 161 -81
110 -16 -16 -15 -43 3 -78 14 -27 14 -30 0 -30 -8 0 -29 13 -47 29 -31 27 -33
34 -33 93 0 80 29 132 89 159 49 22 115 24 142 4z m14 -81 c-30 -35 -40 -8
-12 34 17 26 17 26 20 4 2 -13 -2 -30 -8 -38z m139 -57 c18 -22 18 -61 0 -65
-25 -5 -72 39 -64 61 8 20 48 23 64 4z m-239 -79 c15 -28 8 -57 -17 -65 -14
-5 -46 64 -39 83 9 23 38 13 56 -18z m-910 -139 c-7 -11 -14 -18 -17 -15 -8 8
5 36 17 36 7 0 7 -6 0 -21z m-196 -24 c3 -11 1 -27 -4 -35 -16 -25 -33 3 -25
40 7 33 18 31 29 -5z m407 -48 c-18 -18 -25 1 -11 30 l14 28 4 -24 c2 -13 -1
-28 -7 -34z"/>
<path d="M2281 4612 c-24 -20 -111 -160 -111 -179 0 -28 17 -9 64 72 27 47 53
85 57 85 7 0 -11 -71 -32 -127 -12 -31 -11 -43 1 -43 10 0 60 149 60 180 0 27
-15 32 -39 12z"/>
<path d="M3388 4553 c-39 -41 -118 -151 -118 -165 0 -22 20 -2 63 60 25 37 58
79 73 92 l27 25 -7 -34 c-3 -19 -18 -59 -31 -89 -14 -30 -23 -58 -19 -61 17
-17 74 117 74 174 0 46 -17 45 -62 -2z"/>
<path d="M2306 4391 c-5 -7 2 -11 19 -11 50 0 93 -26 117 -72 20 -38 23 -56
22 -163 0 -90 -5 -132 -18 -167 -26 -68 -19 -177 14 -213 34 -36 92 -35 130 3
50 51 64 169 26 227 -13 20 -10 27 47 93 87 101 182 173 322 242 84 42 112 60
93 60 -43 0 -217 -94 -307 -167 -45 -36 -105 -94 -133 -129 -45 -55 -53 -62
-71 -52 -11 5 -34 8 -51 5 l-31 -5 0 117 c0 127 -15 175 -67 214 -30 22 -102
34 -112 18z"/>
<path d="M2246 4138 c-12 -46 -6 -126 10 -142 18 -19 20 -19 45 -5 20 10 69
101 69 127 0 28 -17 8 -42 -49 -21 -46 -31 -60 -45 -57 -16 3 -18 13 -16 76 2
70 -8 95 -21 50z"/>
<path d="M3344 4128 c3 -13 9 -40 12 -60 7 -41 24 -52 24 -15 0 36 -20 97 -32
97 -6 0 -8 -9 -4 -22z"/>
<path d="M2886 4101 c-4 -5 -9 -36 -12 -69 -6 -53 -4 -62 15 -81 20 -20 25
-21 44 -9 37 24 86 138 60 138 -5 0 -17 -23 -28 -52 -20 -51 -47 -79 -62 -64
-4 4 -7 39 -5 77 2 66 0 79 -12 60z"/>
<path d="M3310 3945 c0 -2 5 -27 11 -55 10 -48 29 -69 29 -32 0 30 -21 92 -30
92 -6 0 -10 -2 -10 -5z"/>
<path d="M3396 3928 c4 -13 10 -39 13 -58 4 -19 11 -34 16 -34 11 2 8 55 -6
91 -11 30 -33 31 -23 1z"/>
<path d="M3274 3808 c4 -13 10 -40 13 -60 3 -21 10 -38 14 -38 12 0 11 51 -2
89 -12 35 -35 44 -25 9z"/>
<path d="M3380 3733 c1 -19 26 -103 33 -109 9 -9 7 52 -2 85 -6 23 -32 43 -31
24z"/>
<path d="M2640 3703 c0 -32 -25 -141 -34 -150 -12 -13 -35 21 -52 77 -20 66
-40 82 -29 23 10 -56 47 -117 71 -121 17 -2 25 6 38 38 22 54 33 160 17 160
-6 0 -11 -12 -11 -27z"/>
<path d="M3255 3648 c9 -62 15 -78 27 -78 11 0 2 74 -14 103 -15 29 -20 19
-13 -25z"/>
<path d="M1891 3606 c-37 -44 -77 -214 -80 -342 l-2 -90 38 -17 c21 -9 69 -26
106 -38 55 -17 67 -24 62 -38 -32 -76 -68 -186 -89 -268 -26 -102 -53 -289
-44 -299 3 -2 67 -20 143 -39 158 -40 287 -53 325 -33 48 26 80 164 102 432
11 153 12 156 35 156 13 0 23 5 23 10 0 6 46 10 118 10 140 0 304 13 507 41
137 18 395 63 438 75 27 8 22 102 -12 235 -36 142 -47 170 -63 164 -27 -9
-288 -54 -406 -70 -459 -60 -902 -21 -1144 101 -37 19 -48 21 -57 10z"/>
<path d="M3234 2724 c4 -10 16 -73 28 -139 37 -218 13 -373 -69 -445 -18 -17
-38 -30 -44 -30 -6 0 -7 -4 -4 -10 10 -17 23 -12 64 25 21 19 49 59 62 88 22
48 24 64 23 207 -2 166 -26 309 -53 318 -10 3 -12 0 -7 -14z"/>
<path d="M1485 2578 c-28 -80 -33 -267 -9 -368 17 -75 63 -182 75 -175 4 3 -3
29 -15 58 -53 119 -70 292 -42 425 7 35 9 65 4 68 -4 3 -10 -1 -13 -8z"/>
<path d="M3365 2538 c5 -13 9 -42 9 -65 1 -24 5 -42 11 -40 15 5 18 66 5 98
-15 34 -36 40 -25 7z"/>
<path d="M1394 2487 c-8 -33 -1 -100 11 -104 6 -2 10 23 10 62 0 65 -10 85
-21 42z"/>
<path d="M3485 2449 c4 -19 7 -49 6 -66 -1 -39 16 -44 25 -9 7 27 -11 92 -28
102 -8 5 -9 -3 -3 -27z"/>
<path d="M1296 2428 c-18 -25 -22 -98 -6 -98 6 0 10 15 10 33 0 18 7 42 15 53
8 10 15 22 15 27 0 15 -19 6 -34 -15z"/>
<path d="M3406 2355 c-3 -9 -6 -27 -6 -39 0 -12 -7 -32 -16 -44 -9 -13 -13
-26 -9 -30 11 -11 42 35 50 74 7 38 -7 68 -19 39z"/>
<path d="M1339 2293 c-10 -28 -1 -93 14 -96 5 -1 9 26 10 61 2 66 -7 79 -24
35z"/>
<path d="M3490 2205 c-5 -14 -22 -37 -36 -50 -30 -28 -27 -43 4 -26 22 12 46
45 56 79 10 31 -12 29 -24 -3z"/>
<path d="M3344 2155 c-9 -20 -25 -40 -35 -46 -21 -11 -26 -29 -8 -29 15 0 65
55 72 80 9 35 -11 32 -29 -5z"/>
<path d="M1270 2150 c0 -19 11 -41 30 -62 33 -37 41 -21 10 19 -11 14 -20 36
-20 49 0 13 -4 24 -10 24 -5 0 -10 -13 -10 -30z"/>
<path d="M1810 2025 c0 -148 -1 -155 -20 -155 -11 0 -20 -4 -20 -10 0 -5 11
-10 25 -10 14 0 29 -8 35 -19 15 -28 13 -31 -20 -31 -20 0 -30 -5 -30 -15 0
-8 9 -15 19 -15 26 0 34 -15 21 -40 -7 -13 -21 -20 -40 -20 -39 0 -39 -19 0
-26 24 -5 30 -12 30 -31 0 -24 -1 -25 -65 -18 -41 5 -65 4 -65 -3 0 -10 55
-22 103 -22 27 0 27 0 27 -70 l0 -70 274 0 273 0 7 38 c3 20 6 58 6 85 l0 47
71 0 c44 0 68 4 64 10 -3 6 -30 10 -58 10 -59 0 -83 11 -74 34 4 11 19 16 44
16 21 0 48 3 60 6 39 11 14 24 -43 24 -52 0 -55 2 -52 23 2 17 11 23 37 27 49
7 51 28 4 32 -31 2 -39 7 -41 26 -3 18 1 22 27 23 17 1 36 3 41 4 6 1 24 3 40
4 17 0 30 6 30 12 0 7 -23 10 -67 8 l-68 -4 3 100 c2 55 5 119 9 143 l5 42
-296 0 -296 0 0 -155z m410 50 c0 -16 -36 -57 -65 -75 -52 -32 -100 -25 -152
23 -13 11 -23 27 -23 35 0 9 15 1 40 -22 26 -23 50 -36 68 -36 33 0 87 31 102
59 10 19 30 29 30 16z"/>
<path d="M1046 2131 c-17 -26 -10 -211 9 -279 38 -134 128 -231 253 -272 73
-23 212 -39 212 -23 0 6 -33 14 -72 18 -147 14 -258 71 -317 163 -51 81 -63
126 -70 272 -4 88 -9 130 -15 121z"/>
<path d="M1390 2125 c0 -16 25 -70 42 -92 20 -26 28 -1 8 27 -11 15 -20 40
-20 54 0 16 -6 26 -15 26 -8 0 -15 -7 -15 -15z"/>
<path d="M3791 2024 c-45 -257 -200 -434 -441 -501 -50 -14 -102 -18 -227 -18
-104 0 -162 -4 -160 -10 2 -6 70 -10 178 -10 167 1 177 2 259 31 208 73 344
225 400 448 22 86 25 126 11 126 -5 0 -14 -30 -20 -66z"/>
<path d="M3360 2015 c-7 -8 -27 -17 -46 -21 -47 -9 -44 -28 3 -21 39 7 102 57
71 57 -8 0 -21 -7 -28 -15z"/>
<path d="M3030 2004 c-14 -7 -37 -14 -52 -14 -16 0 -28 -4 -28 -10 0 -5 14
-10 31 -10 34 0 99 27 99 41 0 12 -20 10 -50 -7z"/>
<path d="M3198 1984 c-9 -9 -31 -19 -49 -23 -40 -8 -40 -27 -1 -24 28 2 73 31
80 51 5 17 -11 15 -30 -4z"/>
<path d="M1397 1983 c-17 -16 56 -83 91 -83 20 0 13 18 -10 26 -13 4 -34 20
-49 35 -14 16 -29 26 -32 22z"/>
<path d="M1540 1950 c0 -17 51 -60 77 -66 40 -10 37 3 -5 25 -22 11 -42 27
-45 36 -7 17 -27 21 -27 5z"/>
<path d="M4136 1861 c3 -21 1 -47 -5 -59 -7 -13 -7 -23 -2 -27 22 -13 41 68
25 109 -12 31 -24 15 -18 -23z"/>
<path d="M4055 1791 c-4 -22 -13 -45 -21 -52 -18 -15 -18 -29 0 -29 17 0 46
59 46 94 0 40 -17 31 -25 -13z"/>
<path d="M4110 1662 c0 -10 -9 -35 -20 -57 -20 -40 -20 -52 0 -40 27 17 53
115 30 115 -5 0 -10 -8 -10 -18z"/>
<path d="M1696 1473 c12 -47 26 -79 31 -66 6 17 -16 93 -28 93 -5 0 -7 -12 -3
-27z"/>
<path d="M3970 1469 c-13 -17 -33 -35 -47 -40 -28 -11 -22 -30 7 -22 24 6 70
58 70 79 0 21 -6 17 -30 -17z"/>
<path d="M4094 1475 c-3 -14 -18 -34 -32 -45 -26 -21 -25 -37 3 -27 17 7 55
65 55 85 0 22 -19 13 -26 -13z"/>
<path d="M1870 1390 c0 -17 41 -92 47 -86 7 7 -30 96 -39 96 -5 0 -8 -5 -8
-10z"/>
<path d="M4160 1371 c0 -7 11 -26 25 -42 28 -34 40 -84 32 -141 -8 -59 -20
-64 -48 -21 -24 37 -83 71 -94 54 -3 -5 11 -18 31 -28 41 -20 70 -62 61 -87
-11 -29 -71 -20 -113 16 -29 26 -36 28 -33 13 7 -34 68 -67 119 -63 44 2 45 2
48 -29 2 -18 -5 -52 -16 -76 -32 -73 -109 -95 -221 -61 -42 12 -51 19 -46 32
3 9 9 39 12 66 8 62 -12 56 -22 -7 -10 -58 -14 -62 -41 -36 -34 32 -43 15 -11
-19 l27 -28 -23 -22 c-29 -27 -74 -28 -107 -2 -32 25 -59 28 -39 4 40 -49 119
-58 161 -18 l27 27 59 -17 c162 -45 254 10 258 155 1 37 9 79 18 97 20 39 21
124 0 167 -17 38 -64 85 -64 66z"/>
<path d="M1780 1315 c0 -14 41 -85 50 -85 12 0 -25 83 -39 88 -6 2 -11 1 -11
-3z"/>
<path d="M3967 1294 c-11 -14 -30 -30 -43 -36 -27 -12 -32 -28 -9 -28 19 0 85
58 85 76 0 21 -13 16 -33 -12z"/>
<path d="M1965 1188 c10 -32 34 -68 45 -68 5 0 0 20 -12 45 -23 47 -44 62 -33
23z"/>
<path d="M1850 1181 c0 -16 41 -81 51 -81 13 0 11 7 -13 50 -22 38 -38 51 -38
31z"/>
<path d="M1686 732 c-9 -14 14 -102 26 -102 6 0 7 17 3 43 -9 52 -20 74 -29
59z"/>
<path d="M2840 729 c0 -23 23 -89 32 -89 11 0 10 15 -4 61 -10 36 -28 53 -28
28z"/>
<path d="M2970 728 c0 -28 22 -88 31 -88 10 0 7 32 -7 83 -6 20 -24 23 -24 5z"/>
<path d="M1555 698 c9 -43 27 -76 32 -61 2 6 -1 30 -7 52 -13 49 -35 57 -25 9z"/>
<path d="M2913 654 c10 -49 26 -86 36 -79 6 3 3 24 -6 50 -18 53 -39 73 -30
29z"/>
<path d="M1625 638 c9 -43 27 -76 32 -61 2 6 -1 30 -7 52 -13 49 -35 57 -25 9z"/>
<path d="M1590 541 c0 -27 21 -81 31 -81 11 0 11 2 -2 56 -11 44 -29 60 -29
25z"/>
<path d="M2880 549 c0 -23 23 -89 32 -89 11 0 10 15 -4 61 -10 36 -28 53 -28
28z"/>
<path d="M1706 493 c12 -50 23 -73 35 -73 11 0 8 26 -11 75 -13 34 -32 33 -24
-2z"/>
<path d="M2990 517 c0 -2 7 -24 16 -50 16 -48 41 -67 30 -22 -12 46 -25 75
-36 75 -5 0 -10 -1 -10 -3z"/>
<path d="M1648 434 c-9 -8 22 -94 34 -94 10 0 6 28 -12 75 -10 26 -13 29 -22
19z"/>
<path d="M2930 437 c0 -2 7 -24 16 -50 16 -48 41 -67 30 -22 -12 46 -25 75
-36 75 -5 0 -10 -1 -10 -3z"/>
<path d="M1645 171 c-48 -22 -68 -43 -59 -65 7 -18 55 -22 85 -5 17 9 19 7 14
-14 -8 -29 16 -51 44 -42 15 4 20 1 23 -17 4 -33 39 -34 97 -3 54 30 174 145
150 145 -8 0 -35 -21 -59 -46 -76 -78 -170 -129 -170 -91 0 7 21 34 47 60 25
26 44 50 41 53 -4 3 -34 -15 -68 -40 -93 -68 -122 -57 -55 21 19 22 32 43 29
46 -3 2 -28 -10 -56 -29 -28 -19 -63 -34 -79 -34 -46 0 -25 27 37 47 30 9 54
20 54 25 0 13 -32 9 -75 -11z"/>
<path d="M2915 177 c-59 -23 -76 -38 -73 -60 2 -17 11 -23 35 -25 18 -2 40 1
50 6 16 9 18 6 18 -21 0 -30 2 -32 33 -30 24 1 32 -3 28 -12 -8 -21 20 -38 51
-30 16 3 43 18 61 32 43 32 114 122 106 134 -3 5 -15 -3 -26 -18 -57 -75 -125
-133 -158 -133 -23 0 -8 33 36 80 50 54 45 67 -8 22 -41 -35 -84 -62 -98 -62
-20 0 -9 37 20 65 49 47 35 57 -27 19 -57 -34 -108 -45 -101 -21 3 6 28 21 56
32 29 11 52 23 52 28 0 10 -19 8 -55 -6z"/>
</g>
</svg>
